<svg xmlns="http://www.w3.org/2000/svg" version="1.1" xmlns:xlink="http://www.w3.org/1999/xlink" xmlns:svgjs="http://svgjs.com/svgjs" width="1440" height="560" preserveAspectRatio="none" viewBox="0 0 1440 560"><g mask="url(&quot;#SvgjsMask1143&quot;)" fill="none"><path d="M848.985,318.156C912.179,320.445,977.059,296.832,1008.84,242.164C1040.757,187.261,1032.317,117.117,996.239,64.855C964.387,18.715,904.965,7.501,848.985,10.601C799.124,13.362,754.39,37.654,727.505,79.736C698.118,125.733,683.225,182.633,708.005,231.267C734.865,283.984,789.859,316.014,848.985,318.156" fill="rgba(28, 83, 142, 0.4)" class="triangle-float3"></path><path d="M1360.4,699.195C1408.299,697.952,1457.699,681.961,1480.714,639.935C1503.045,599.159,1486.233,551.5,1463.491,510.952C1440.081,469.212,1408.214,427.453,1360.4,425.418C1309.838,423.266,1266.794,457.996,1240.9,501.478C1214.302,546.142,1201.87,601.986,1228.759,646.475C1254.965,689.833,1309.755,700.51,1360.4,699.195" fill="rgba(28, 83, 142, 0.4)" class="triangle-float3"></path><path d="M307.64,142.739C322.363,142.598,334.448,131.975,341.281,118.933C347.612,106.848,347.082,92.49,340.111,80.763C333.296,69.298,320.97,62.788,307.64,62.34C293.401,61.862,278.556,66.272,271.159,78.448C263.521,91.021,265.601,106.794,272.861,119.589C280.227,132.571,292.715,142.882,307.64,142.739" fill="rgba(28, 83, 142, 0.4)" class="triangle-float1"></path><path d="M4.184,246.028C22.793,245.988,38.706,234.656,48.674,218.942C59.543,201.807,66.972,180.434,57.004,162.76C46.914,144.869,24.723,139.848,4.184,140.058C-15.909,140.264,-36.885,146.342,-46.794,163.823C-56.598,181.12,-51.116,202.236,-40.638,219.133C-30.796,235.004,-14.491,246.068,4.184,246.028" fill="rgba(28, 83, 142, 0.4)" class="triangle-float2"></path><path d="M1333.559,243.322C1358.832,243.15,1383.204,232.765,1396.683,211.385C1411.111,188.5,1414.666,159.351,1401.343,135.806C1387.841,111.944,1360.976,99.668,1333.559,99.826C1306.431,99.982,1280.632,113.058,1267.112,136.577C1253.633,160.024,1254.636,189.296,1268.928,212.256C1282.467,234.006,1307.94,243.497,1333.559,243.322" fill="rgba(28, 83, 142, 0.4)" class="triangle-float2"></path></g><defs><mask id="SvgjsMask1143"><rect width="1440" height="560" fill="#ffffff"></rect></mask><style>
            @keyframes float1 {
                0%{transform: translate(0, 0)}
                50%{transform: translate(-10px, 0)}
                100%{transform: translate(0, 0)}
            }

            .triangle-float1 {
                animation: float1 5s infinite;
            }

            @keyframes float2 {
                0%{transform: translate(0, 0)}
                50%{transform: translate(-5px, -5px)}
                100%{transform: translate(0, 0)}
            }

            .triangle-float2 {
                animation: float2 4s infinite;
            }

            @keyframes float3 {
                0%{transform: translate(0, 0)}
                50%{transform: translate(0, -10px)}
                100%{transform: translate(0, 0)}
            }

            .triangle-float3 {
                animation: float3 6s infinite;
            }
        </style></defs></svg>